<?xml version="1.0" standalone="no"?>
<!DOCTYPE svg PUBLIC "-//W3C//DTD SVG 20010904//EN"
 "http://www.w3.org/TR/2001/REC-SVG-20010904/DTD/svg10.dtd">
<svg version="1.0" xmlns="http://www.w3.org/2000/svg"
 width="360.000000pt" height="503.000000pt" viewBox="0 0 360.000000 503.000000"
 preserveAspectRatio="xMidYMid meet">

<g transform="translate(0.000000,503.000000) scale(0.100000,-0.100000)"
fill="#000000" stroke="none">
<path d="M2430 4771 c-57 -31 -110 -71 -162 -123 l-78 -77 0 42 c1 23 5 62 10
87 4 25 7 46 5 48 -7 7 -126 -206 -136 -242 -6 -23 -9 -66 -7 -96 5 -50 2 -59
-29 -99 -43 -56 -50 -87 -30 -120 20 -33 143 -142 134 -119 -5 14 -1 17 15 15
31 -3 33 18 2 32 -24 10 -25 15 -19 49 8 45 30 82 50 82 17 0 19 -18 5 -54 -6
-17 -6 -26 0 -26 6 0 10 5 10 10 0 6 5 10 10 10 17 0 11 -20 -14 -45 -24 -24
-17 -47 8 -26 7 6 16 8 19 5 4 -4 11 5 16 20 11 28 31 35 31 11 0 -9 9 -15 21
-15 18 0 20 -4 15 -25 -4 -15 6 -64 24 -126 18 -61 28 -112 24 -128 -14 -62
-15 -63 -44 -57 -16 3 -30 2 -33 -2 -2 -4 -2 -2 -1 5 2 6 -12 20 -29 31 -32
18 -97 123 -97 155 0 25 -29 40 -81 43 l-50 2 32 -36 c30 -34 90 -149 104
-202 14 -48 -11 -5 -40 69 -19 49 -42 88 -71 119 -39 41 -46 44 -79 39 -24 -4
-33 -2 -29 5 5 7 2 8 -5 4 -7 -5 -10 -10 -7 -13 6 -6 -42 -47 -64 -56 -9 -3
-4 -6 12 -6 26 -1 58 -24 58 -41 0 -5 -15 -10 -32 -12 -31 -3 -29 -4 24 -21
49 -15 61 -23 83 -61 34 -58 34 -118 -1 -163 -22 -29 -31 -34 -53 -28 l-26 7
21 -24 c45 -50 40 -79 -17 -108 -64 -33 -163 -45 -239 -28 -36 8 -74 18 -85
22 -30 11 54 -63 96 -84 45 -24 221 -50 331 -50 70 0 92 4 136 26 56 28 66 44
28 44 -13 0 -40 11 -60 25 -20 14 -41 25 -46 25 -5 0 -22 18 -36 40 l-27 41
29 30 c53 56 265 142 308 126 25 -10 20 -73 -9 -124 -15 -24 -48 -58 -78 -78
-28 -19 -49 -35 -45 -35 4 0 39 12 79 26 58 21 76 24 96 15 13 -6 38 -11 55
-11 23 0 29 4 24 16 -4 10 -2 13 7 8 20 -12 47 -37 47 -44 0 -15 -54 -30 -106
-30 -52 0 -58 -3 -102 -45 -50 -48 -45 -49 48 -6 27 12 66 21 98 21 29 0 67 7
83 16 17 8 38 14 47 12 23 -5 -44 -46 -89 -54 -19 -4 -46 -15 -61 -26 -45 -31
-133 -56 -237 -68 -54 -6 -103 -10 -107 -8 -5 1 -29 -8 -53 -21 -33 -17 -53
-21 -80 -16 -61 10 -103 6 -117 -13 -18 -23 -13 -33 24 -57 20 -13 29 -26 26
-37 -3 -9 -1 -19 4 -22 5 -3 8 -41 5 -83 -4 -76 -5 -79 -44 -113 -34 -30 -45
-51 -77 -150 -33 -98 -42 -115 -63 -120 -15 -4 -31 -20 -42 -43 -11 -23 -24
-37 -36 -37 -30 0 -148 -38 -261 -85 -86 -36 -121 -45 -192 -50 -96 -7 -79 3
-189 -121 -14 -16 -42 -42 -63 -58 -48 -36 -111 -132 -133 -203 -16 -52 -16
-57 0 -104 17 -47 17 -49 -4 -90 -20 -40 -20 -44 -6 -75 15 -31 15 -36 -18
-118 -19 -47 -35 -101 -35 -119 0 -35 39 -118 91 -194 22 -31 34 -40 49 -36
14 4 20 0 20 -11 0 -18 55 -56 82 -56 9 0 26 -12 37 -26 24 -31 26 -75 11
-240 -18 -186 -72 -266 -234 -345 -101 -49 -144 -58 -162 -34 -13 17 -14 17
-20 1 -4 -11 0 -24 10 -34 13 -14 34 -17 104 -15 126 2 202 20 295 68 45 23
112 52 150 64 37 13 74 29 82 38 18 17 19 79 4 154 -14 68 -15 52 6 259 20
196 17 188 128 308 l49 53 -6 77 c-4 42 -11 94 -16 116 -13 58 3 83 79 117 40
18 80 46 106 75 36 39 66 56 225 125 101 43 189 79 195 79 7 0 15 -17 19 -37
15 -92 28 -118 86 -173 50 -47 66 -72 110 -170 28 -63 64 -131 80 -151 24 -31
37 -70 74 -233 25 -108 48 -201 51 -206 3 -5 32 -25 64 -45 47 -29 60 -44 70
-74 14 -48 21 -53 97 -79 46 -15 79 -19 133 -16 88 6 123 -10 152 -69 12 -23
46 -86 77 -140 44 -80 52 -101 41 -108 -11 -7 -9 -9 9 -9 26 0 30 -20 5 -21
-10 0 -3 -6 16 -13 41 -15 51 -27 113 -150 43 -86 48 -100 34 -108 -24 -13
-20 -31 4 -18 17 9 23 5 47 -32 29 -47 82 -165 83 -185 0 -7 -8 -13 -17 -13
-17 -1 -17 -1 0 -11 32 -18 55 -1 77 59 12 31 24 77 27 102 10 86 -64 295
-152 432 -25 38 -44 73 -41 76 3 3 -6 26 -19 51 -14 25 -47 127 -74 225 -48
177 -48 179 -29 198 15 15 18 28 14 56 -3 20 -8 75 -12 122 l-6 85 -110 112
c-114 115 -147 169 -168 270 -5 23 -25 73 -44 111 -23 46 -38 94 -45 146 -11
81 -19 101 -56 151 -34 46 -76 183 -69 226 5 28 1 41 -19 65 -19 23 -28 52
-42 138 -16 103 -51 197 -92 247 -9 11 -10 24 -4 46 5 16 7 42 4 56 -4 19 1
28 16 36 12 7 21 18 21 26 0 7 14 16 30 20 24 5 32 14 37 36 4 22 16 35 45 50
39 20 58 50 58 94 0 17 16 36 60 70 55 42 61 51 80 115 12 39 24 70 28 70 19
0 102 89 102 110 0 12 -18 44 -40 70 -22 26 -40 58 -40 71 0 38 -99 162 -139
175 l-34 11 29 7 c16 4 62 32 102 63 78 60 96 78 66 70 -11 -3 -30 -9 -43 -12
-22 -7 35 68 188 249 13 15 5 13 -37 -8 -30 -15 -56 -25 -58 -23 -3 3 40 74
95 158 55 84 99 155 97 156 -2 2 -41 -6 -87 -17 -46 -11 -129 -23 -183 -27
l-99 -6 30 44 c17 25 52 64 77 87 25 23 46 44 46 46 0 6 -288 -35 -337 -49
-28 -8 -81 -28 -117 -45 -36 -16 -66 -25 -66 -19 0 5 16 41 35 79 19 38 35 72
35 75 0 9 -15 3 -100 -44z m110 -580 c-19 -16 -37 -27 -40 -24 -7 6 48 53 63
53 6 0 -4 -13 -23 -29z m-18 -173 c-7 -7 -12 -8 -12 -2 0 14 12 26 19 19 2 -3
-1 -11 -7 -17z m-419 -25 c15 -32 15 -35 1 -18 -24 30 -36 55 -26 55 4 0 16
-17 25 -37z m493 -30 c-10 -10 -19 5 -10 18 6 11 8 11 12 0 2 -7 1 -15 -2 -18z
m24 -17 c0 -11 -19 -15 -25 -6 -3 5 1 10 9 10 9 0 16 -2 16 -4z m40 -175 c0
-5 -3 -16 -6 -24 -5 -13 -8 -13 -25 4 -25 25 -24 29 6 29 14 0 25 -4 25 -9z
m-393 -38 c-3 -10 -5 -4 -5 12 0 17 2 24 5 18 2 -7 2 -21 0 -30z m37 21 c5
-14 4 -15 -9 -4 -17 14 -19 20 -6 20 5 0 12 -7 15 -16z m240 -35 c14 -17 26
-41 26 -55 0 -22 -4 -24 -48 -24 l-49 0 2 53 c3 63 1 57 24 57 11 0 31 -14 45
-31z m251 -71 c7 -26 6 -27 -28 -16 l-34 10 21 22 c24 25 32 22 41 -16z"/>
<path d="M895 4141 c59 -7 106 -30 124 -63 7 -12 44 -50 82 -83 38 -33 75 -73
83 -90 9 -19 15 -24 15 -13 1 26 -21 68 -35 68 -13 0 -117 99 -145 137 -27 36
-66 53 -121 51 l-53 -1 50 -6z"/>
<path d="M820 4100 c-22 -7 -21 -8 13 -9 23 -1 36 3 32 9 -7 11 -10 11 -45 0z"/>
<path d="M916 4101 c-3 -5 1 -11 9 -14 9 -4 12 -1 8 9 -6 16 -10 17 -17 5z"/>
<path d="M860 4052 l-25 -13 31 6 c22 4 37 0 56 -15 24 -18 26 -18 21 -2 -7
28 -53 41 -83 24z"/>
<path d="M2150 4051 c-14 -27 -13 -31 10 -31 15 0 20 7 20 25 0 30 -15 33 -30
6z"/>
<path d="M1963 4043 c9 -2 25 -2 35 0 9 3 1 5 -18 5 -19 0 -27 -2 -17 -5z"/>
<path d="M2238 4044 c16 -7 16 -34 -1 -34 -7 0 -18 -5 -25 -12 -10 -10 -7 -15
10 -26 23 -13 23 -13 -4 -9 -16 2 -28 1 -28 -2 1 -12 39 -76 40 -66 0 11 50
12 68 1 23 -14 23 21 0 85 -19 54 -27 64 -48 66 -14 1 -19 0 -12 -3z"/>
<path d="M1498 4003 c6 -2 18 -2 25 0 6 3 1 5 -13 5 -14 0 -19 -2 -12 -5z"/>
<path d="M1428 3993 c7 -3 16 -2 19 1 4 3 -2 6 -13 5 -11 0 -14 -3 -6 -6z"/>
<path d="M895 3980 c-11 -5 -17 -9 -13 -9 3 -1 13 -4 21 -7 8 -3 17 2 20 10 7
18 2 19 -28 6z"/>
<path d="M1338 3983 c6 -2 18 -2 25 0 6 3 1 5 -13 5 -14 0 -19 -2 -12 -5z"/>
<path d="M970 3965 c7 -8 17 -15 22 -15 5 0 3 7 -6 15 -8 8 -18 15 -22 15 -3
0 -1 -7 6 -15z"/>
<path d="M1240 3970 c19 -13 30 -13 30 0 0 6 -10 10 -22 10 -19 0 -20 -2 -8
-10z"/>
<path d="M1600 3971 c0 -5 7 -12 16 -15 14 -5 15 -4 4 9 -14 17 -20 19 -20 6z"/>
<path d="M1211 3944 c0 -11 3 -14 6 -6 3 7 2 16 -1 19 -3 4 -6 -2 -5 -13z"/>
<path d="M1825 3950 c-3 -5 -1 -10 4 -10 6 0 11 5 11 10 0 6 -2 10 -4 10 -3 0
-8 -4 -11 -10z"/>
<path d="M1101 3907 c21 -43 22 -48 7 -85 -14 -37 -14 -39 2 -35 10 3 31 -2
47 -11 17 -8 45 -13 63 -11 28 4 237 -54 339 -93 8 -3 12 -1 8 5 -4 6 8 37 25
69 26 48 32 70 32 117 -1 32 -5 62 -10 67 -13 12 -252 -14 -298 -34 -52 -22
-59 -21 -52 10 5 17 3 23 -4 19 -5 -3 -10 -12 -10 -20 0 -7 -6 -15 -14 -18 -7
-3 -17 -29 -21 -59 l-8 -53 -16 55 c-14 45 -25 60 -64 88 l-48 35 22 -46z"/>
<path d="M1706 3877 c8 -23 -2 -62 -22 -81 -14 -15 -14 -16 5 -16 22 0 29 -16
10 -22 -9 -3 -9 -10 1 -27 7 -13 9 -37 6 -53 -5 -27 -4 -29 10 -17 12 10 15
26 12 68 -3 30 -2 70 2 88 6 26 4 38 -11 56 -14 16 -17 17 -13 4z"/>
<path d="M2290 3850 c-12 -8 -11 -10 8 -10 12 0 22 5 22 10 0 13 -11 13 -30 0z"/>
<path d="M1039 3753 c-13 -16 -12 -17 4 -4 9 7 17 15 17 17 0 8 -8 3 -21 -13z"/>
<path d="M1200 3718 c-12 -33 -12 -33 -20 -8 -5 14 -8 19 -9 12 -1 -8 -13 -44
-27 -80 -26 -64 -107 -168 -144 -183 -8 -4 -24 -16 -34 -28 -16 -17 -31 -21
-85 -22 -63 -1 -64 -1 -28 -11 50 -13 99 -3 127 27 13 14 27 25 32 25 8 0 90
84 126 129 l19 24 62 -21 c83 -28 257 -144 245 -163 -3 -5 0 -9 5 -9 6 0 11 4
11 10 0 5 23 44 50 86 47 72 61 102 42 90 -13 -8 -315 113 -329 132 -7 9 -13
12 -13 6 0 -5 -4 -3 -9 4 -6 10 -12 5 -21 -20z"/>
<path d="M1580 3654 c0 -8 5 -12 10 -9 6 4 8 11 5 16 -9 14 -15 11 -15 -7z"/>
<path d="M1848 3643 c12 -2 32 -2 45 0 12 2 2 4 -23 4 -25 0 -35 -2 -22 -4z"/>
<path d="M1741 3629 c-13 -5 -22 -11 -20 -14 8 -7 49 7 49 16 0 5 -1 9 -2 8
-2 0 -14 -5 -27 -10z"/>
<path d="M1788 3633 c7 -3 16 -2 19 1 4 3 -2 6 -13 5 -11 0 -14 -3 -6 -6z"/>
<path d="M1678 3623 c6 -2 18 -2 25 0 6 3 1 5 -13 5 -14 0 -19 -2 -12 -5z"/>
<path d="M1018 3568 c-25 -20 -79 -43 -120 -53 -11 -2 -18 2 -18 11 0 8 -4 14
-10 14 -15 0 -12 -16 5 -30 22 -18 114 12 150 50 33 35 31 38 -7 8z"/>
<path d="M904 3548 l-19 -23 23 19 c21 18 27 26 19 26 -2 0 -12 -10 -23 -22z"/>
<path d="M908 3483 c7 -3 16 -2 19 1 4 3 -2 6 -13 5 -11 0 -14 -3 -6 -6z"/>
<path d="M2188 3483 c6 -2 18 -2 25 0 6 3 1 5 -13 5 -14 0 -19 -2 -12 -5z"/>
<path d="M1990 3326 l-45 -12 26 -17 c30 -20 66 -10 87 24 15 23 2 24 -68 5z"/>
<path d="M1803 3283 c9 -2 25 -2 35 0 9 3 1 5 -18 5 -19 0 -27 -2 -17 -5z"/>
<path d="M901 1204 c0 -11 3 -14 6 -6 3 7 2 16 -1 19 -3 4 -6 -2 -5 -13z"/>
<path d="M911 1144 c0 -11 3 -14 6 -6 3 7 2 16 -1 19 -3 4 -6 -2 -5 -13z"/>
<path d="M951 964 c0 -11 3 -14 6 -6 3 7 2 16 -1 19 -3 4 -6 -2 -5 -13z"/>
<path d="M884 888 l-29 -33 33 29 c30 28 37 36 29 36 -2 0 -16 -15 -33 -32z"/>
<path d="M735 748 l-90 -93 95 90 c52 50 96 91 99 93 2 1 0 2 -5 2 -5 0 -50
-42 -99 -92z"/>
<path d="M3030 560 c17 -22 34 -40 37 -40 4 0 -1 8 -10 18 -22 24 -21 30 6 35
16 3 13 5 -10 6 -18 0 -33 6 -33 11 0 6 -5 10 -11 10 -6 0 4 -18 21 -40z"/>
<path d="M3240 177 c0 -2 15 -16 33 -33 l32 -29 -29 33 c-28 30 -36 37 -36 29z"/>
</g>
</svg>
